<svg width="32" height="41" viewBox="0 0 32 41" fill="none" xmlns="http://www.w3.org/2000/svg">
<path d="M10 6.11111H6C4.93913 6.11111 3.92172 6.54424 3.17157 7.31523C2.42143 8.08621 2 9.13189 2 10.2222V34.8889C2 35.9792 2.42143 37.0249 3.17157 37.7959C3.92172 38.5669 4.93913 39 6 39H26C27.0609 39 28.0783 38.5669 28.8284 37.7959C29.5786 37.0249 30 35.9792 30 34.8889V10.2222C30 9.13189 29.5786 8.08621 28.8284 7.31523C28.0783 6.54424 27.0609 6.11111 26 6.11111H22M10 6.11111C10 7.20145 10.4214 8.24712 11.1716 9.01811C11.9217 9.78909 12.9391 10.2222 14 10.2222H18C19.0609 10.2222 20.0783 9.78909 20.8284 9.01811C21.5786 8.24712 22 7.20145 22 6.11111M10 6.11111C10 5.02078 10.4214 3.9751 11.1716 3.20412C11.9217 2.43313 12.9391 2 14 2H18C19.0609 2 20.0783 2.43313 20.8284 3.20412C21.5786 3.9751 22 5.02078 22 6.11111" stroke="#4F46E5" stroke-width="4"/>
</svg>
