<svg width="47" height="39" viewBox="0 0 47 39" fill="none" xmlns="http://www.w3.org/2000/svg">
<path d="M34.125 36.5H44.75V32.25C44.7499 30.9251 44.337 29.6332 43.5688 28.5538C42.8006 27.4744 41.7151 26.6612 40.4633 26.2272C39.2116 25.7932 37.8557 25.76 36.5842 26.1322C35.3127 26.5043 34.1887 27.2634 33.3685 28.3039M34.125 36.5H12.875M34.125 36.5V32.25C34.125 30.856 33.8573 29.5236 33.3685 28.3039M33.3685 28.3039C32.5794 26.3318 31.2175 24.6414 29.4585 23.4506C27.6995 22.2599 25.6241 21.6235 23.5 21.6235C21.3759 21.6235 19.3005 22.2599 17.5415 23.4506C15.7825 24.6414 14.4206 26.3318 13.6315 28.3039M12.875 36.5H2.25V32.25C2.2501 30.9251 2.66296 29.6332 3.43121 28.5538C4.19945 27.4744 5.2849 26.6612 6.53666 26.2272C7.78842 25.7932 9.1443 25.76 10.4158 26.1322C11.6873 26.5043 12.8113 27.2634 13.6315 28.3039M12.875 36.5V32.25C12.875 30.856 13.1428 29.5236 13.6315 28.3039M29.875 8.875C29.875 10.5658 29.2034 12.1873 28.0078 13.3828C26.8123 14.5784 25.1908 15.25 23.5 15.25C21.8092 15.25 20.1877 14.5784 18.9922 13.3828C17.7967 12.1873 17.125 10.5658 17.125 8.875C17.125 7.18424 17.7967 5.56274 18.9922 4.36719C20.1877 3.17165 21.8092 2.5 23.5 2.5C25.1908 2.5 26.8123 3.17165 28.0078 4.36719C29.2034 5.56274 29.875 7.18424 29.875 8.875ZM42.625 15.25C42.625 16.3772 42.1772 17.4582 41.3802 18.2552C40.5832 19.0522 39.5022 19.5 38.375 19.5C37.2478 19.5 36.1668 19.0522 35.3698 18.2552C34.5728 17.4582 34.125 16.3772 34.125 15.25C34.125 14.1228 34.5728 13.0418 35.3698 12.2448C36.1668 11.4478 37.2478 11 38.375 11C39.5022 11 40.5832 11.4478 41.3802 12.2448C42.1772 13.0418 42.625 14.1228 42.625 15.25ZM12.875 15.25C12.875 16.3772 12.4272 17.4582 11.6302 18.2552C10.8332 19.0522 9.75217 19.5 8.625 19.5C7.49783 19.5 6.41683 19.0522 5.6198 18.2552C4.82277 17.4582 4.375 16.3772 4.375 15.25C4.375 14.1228 4.82277 13.0418 5.6198 12.2448C6.41683 11.4478 7.49783 11 8.625 11C9.75217 11 10.8332 11.4478 11.6302 12.2448C12.4272 13.0418 12.875 14.1228 12.875 15.25Z" stroke="#2563EB" stroke-width="4"/>
</svg>
